# Alias OBJ Model File
# Exported from SketchUp, (c) 2000-2012 Trimble Navigation Limited
# File units = millimeters

mtllib test3d.mtl

g Mesh1 AnyConv_com__Carlo_Alberto_stl1 Model

usemtl FrontColor
v -0.122 -0.108999 -0.0999994
vt 0.00480315 -0.0042913
vn 0 0 -1
v -0.0381994 -0.1781 -0.0999994
vt 0.00150391 -0.00701181
v -0.0423498 -0.308999 -0.0999994
vt 0.00166731 -0.0121653
f 1/1/1 2/2/1 3/3/1

v -0.18685 -0.3931 -0.0999994
vt 0.0073563 -0.0154764
f 3/3/1 4/4/1 1/1/1

v -0.353499 -0.5 -0.0999994
vt 0.0139173 -0.019685
f 5/5/1 1/1/1 4/4/1

v -0.132899 0.0938997 -0.0999994
vt 0.00523224 0.00369684
f 1/1/1 5/5/1 6/6/1

v -0.353499 0.5 -0.0999994
vt 0.0139173 0.019685
f 7/7/1 6/6/1 5/5/1

v -0.1439 0.1789 -0.0999994
vt 0.00566535 0.00704331
f 6/6/1 7/7/1 8/8/1

v 0.0267992 0.29705 -0.0999994
vt -0.00105509 0.0116949
f 8/8/1 7/7/1 9/9/1

v 0.353499 0.5 -0.0999994
vt -0.0139173 0.019685
f 9/9/1 7/7/1 10/10/1

v -0.353499 0.5 0.0999994
vt 0.0139173 0.00393698
vn 0 1 0
vt -0.0139173 -0.00393698
vt 0.0139173 -0.00393698
f 11/11/2 10/12/2 7/13/2

v 0.353499 0.5 0.0999994
vt -0.0139173 0.00393698
f 10/12/2 11/11/2 12/14/2

vn 0 0 1
v 0.0251493 0.297199 0.0999994
vt 0.00099013 0.0117007
f 11/10/3 13/15/3 12/7/3

v -0.1439 0.1844 0.0999994
vt -0.00566535 0.00725984
f 13/15/3 11/10/3 14/16/3

v -0.353499 -0.5 0.0999994
vt -0.0139173 -0.019685
f 14/16/3 11/10/3 15/17/3

vt -0.019685 0.00393698
vn -1 0 0
vt 0.019685 -0.00393698
vt 0.019685 0.00393698
f 11/18/4 5/19/4 15/20/4

vt -0.019685 -0.00393698
f 5/19/4 11/18/4 7/21/4

vn 0 -1 0
v 0.353499 -0.5 0.0999994
f 5/12/5 16/11/5 15/14/5

v 0.353499 -0.5 -0.0999994
f 16/11/5 5/12/5 17/13/5

v 0.0196991 -0.449849 -0.0999994
vt -0.000775555 -0.0177106
f 5/5/1 18/22/1 17/17/1

v -0.1242 -0.401099 -0.0999994
vt 0.00488976 -0.0157913
f 5/5/1 19/23/1 18/22/1

v 0.0512495 -0.3545 -0.0999994
vt -0.0020177 -0.0139567
f 18/22/1 20/24/1 17/17/1

vn 1 0 0
f 10/19/6 16/18/6 17/21/6

f 16/18/6 10/19/6 12/20/6

v 0.21365 -0.202849 0.0999994
vt 0.00841142 -0.00798618
f 12/7/3 21/25/3 16/5/3

v 0.139099 0.0754995 0.0999994
vt 0.00547634 0.00297242
f 22/26/3 21/25/3 12/7/3

v 0.1212 -0.0282497 0.0999994
vt 0.00477165 -0.00111219
f 23/27/3 21/25/3 22/26/3

v 0.1179 0.218499 0.0999994
vt 0.00464173 0.00860232
f 24/28/3 22/26/3 12/7/3

f 13/15/3 24/28/3 12/7/3

v 0.0983496 -0.272849 0.0999994
vt 0.00387203 -0.0107421
f 21/25/3 25/29/3 16/5/3

v 0.0594997 -0.32935 0.0999994
vt 0.00234251 -0.0129665
f 25/29/3 26/30/3 16/5/3

v 0.00849915 -0.461049 0.0999994
vt 0.000334612 -0.0181515
f 26/30/3 27/31/3 16/5/3

f 27/31/3 15/17/3 16/5/3

v -0.1242 -0.397099 0.0999994
vt -0.00488976 -0.0156338
f 28/32/3 15/17/3 27/31/3

v 0.21365 -0.202849 -0.0999994
vt -0.00841142 -0.00798618
f 17/17/1 29/33/1 10/10/1

v 0.1017 -0.268999 -0.0999994
vt -0.00400394 -0.0105905
f 30/34/1 29/33/1 17/17/1

v 0.0707998 -0.329949 -0.0999994
vt -0.00278739 -0.0129901
f 31/35/1 30/34/1 17/17/1

v 0.135249 0.0799999 -0.0999994
vt -0.00532476 0.0031496
f 29/33/1 32/36/1 10/10/1

v 0.121599 -0.0273495 -0.0999994
vt -0.00478736 -0.00107675
f 29/33/1 33/37/1 32/36/1

v 0.12605 0.20385 -0.0999994
vt -0.0049626 0.00802559
f 32/36/1 34/38/1 10/10/1

v -0.187949 -0.3917 0.0999994
vt -0.00739957 -0.0154213
f 14/16/3 15/17/3 35/39/3

v -0.150049 -0.383249 0.0999994
vt -0.00590744 -0.0150885
f 14/16/3 35/39/3 36/40/3

f 14/16/3 36/40/3 28/32/3

v 0.00739956 0.21875 0.0999994
vt 0.000291321 0.0086122
f 14/16/3 37/41/3 13/15/3

v -0.132899 0.0988998 0.0999994
vt -0.00523224 0.00389369
f 37/41/3 14/16/3 38/42/3

v 0.110399 0.2265 -0.0999994
vt -0.00434642 0.00891732
f 39/43/1 9/9/1 10/10/1

v 0.00179958 0.18825 -0.0999994
vt -7.08496e-05 0.00741142
f 40/44/1 8/8/1 9/9/1

f 8/8/1 40/44/1 6/6/1

v 0.0043993 0.0819492 -0.0999994
vt -0.000173201 0.00322635
f 41/45/1 6/6/1 40/44/1

f 41/45/1 1/1/1 6/6/1

v -0.0148497 -0.1585 -0.0999994
vt 0.000584634 -0.00624016
f 41/45/1 42/46/1 1/1/1

g Mesh2 AnyConv_com__Carlo_Alberto_stl1 Model

v 0.0976496 -0.0879993 -0.0999994
vt -0.00384447 -0.00346454
v 0.0828495 -0.244749 -0.0999994
vt -0.00326179 -0.00963579
f 43/47/1 29/33/1 44/48/1

g Mesh3 AnyConv_com__Carlo_Alberto_stl1 Model

v -0.0464993 -0.3033 0.0999994
vt -0.00183068 -0.0119409
v -0.124 -0.12 0.0999994
vt -0.00488189 -0.00472441
f 28/32/3 45/49/3 46/50/3

v -0.0410995 -0.1647 0.0999994
vt -0.00161809 -0.00648425
f 47/51/3 46/50/3 45/49/3

v 0.00189972 0.0819492 0.0999994
vt 7.47921e-05 0.00322635
f 47/51/3 48/52/3 46/50/3

f 46/50/3 48/52/3 38/42/3

g Mesh4 AnyConv_com__Carlo_Alberto_stl1 Model

v 0.1046 -0.0623493 0.0999994
vt 0.00411811 -0.0024547
v 0.0356493 0.0728998 0.0999994
vt 0.00140352 0.00287007
v 0.0365 -0.152749 0.0999994
vt 0.00143701 -0.00601374
f 49/53/3 50/54/3 51/55/3

g Mesh5 AnyConv_com__Carlo_Alberto_stl1 Model

v 0.0976496 -0.0879993 0.0999994
vt 0.00384447 -0.00346454
v 0.0873995 -0.246799 0.0999994
vt 0.00344093 -0.0097165
f 21/25/3 52/56/3 53/57/3

g Mesh6 AnyConv_com__Carlo_Alberto_stl1 Model

v 0.123699 0.144899 -0.0999994
vt -0.00589422 -0.00406404
vn -0.998822 0.0398335 -0.0277148
v 0.12 0.191299 0.0999994
vt -0.00771374 0.00381296
vt -0.00821697 -0.00406404
f 54/58/7 55/59/7 34/60/7

g Mesh7 Model

usemtl ForegroundColor
v -7.04992e-16 -7.04992e-16 5
vt 0 0
vn 25.4 -6.01635e-15 3.81792e-15
v 7.98128e-16 4.6932e-16 -5
vt 1 0
v 4.14726e-15 14.1395 -5
vt 1 1
v 2.64414e-15 14.1395 5
vt 0 1
f 56/61/8 57/62/8 58/63/8 59/64/8 

