# 3ds Max Wavefront OBJ Exporter v0.99 - (c)2007 guruware
# File Created: 22.11.2022 12:13:35

mtllib testIMG.mtl

#
# object Plane002
#

v  -2.834646 0.000000 -2.834646
v  -2.834646 0.000000 2.834646
v  2.834646 0.000000 2.834646
v  2.834646 0.000000 -2.834646
# 4 vertices

vn 0.000000 1.000000 -0.000000
# 1 vertex normals

vt 0.000000 1.000000 0.000000
vt 0.000000 0.000000 0.000000
vt 1.000000 0.000000 0.000000
vt 1.000000 1.000000 0.000000
# 4 texture coords

o Plane002
g Plane002
usemtl Material__49
s 1
f 1/1/1 2/2/1 3/3/1 4/4/1 
# 1 polygons

